<mxfile host="app.diagrams.net" modified="2022-06-27T06:46:34.648Z" agent="5.0 (Macintosh)" etag="oA8yxDQOM7B3tFg37X5A" version="20.0.3" type="github">
  <diagram id="NFXYB8Lr2hZxddehbd_N" name="Page-1">
    <mxGraphModel dx="788" dy="500" grid="1" gridSize="10" guides="1" tooltips="1" connect="1" arrows="1" fold="1" page="1" pageScale="1" pageWidth="827" pageHeight="1169" background="#DAD2D8" math="0" shadow="0">
      <root>
        <mxCell id="0" />
        <mxCell id="1" parent="0" />
        <mxCell id="1GDeUliBSKqGdwp8zGbP-1" value="&lt;p style=&quot;margin:0px;margin-top:4px;text-align:center;&quot;&gt;&lt;b&gt;activity_subscription_detail&lt;/b&gt;&lt;/p&gt;&lt;hr size=&quot;1&quot;&gt;&lt;p style=&quot;margin:0px;margin-left:4px;&quot;&gt;+ field: Type&lt;/p&gt;&lt;hr size=&quot;1&quot;&gt;&lt;p style=&quot;margin:0px;margin-left:4px;&quot;&gt;+ method(): Type&lt;/p&gt;" style="verticalAlign=top;align=left;overflow=fill;fontSize=12;fontFamily=Helvetica;html=1;rounded=0;sketch=0;fontColor=#143642;strokeColor=#0F8B8D;fillColor=#FAE5C7;" vertex="1" parent="1">
          <mxGeometry x="120" y="120" width="280" height="280" as="geometry" />
        </mxCell>
        <mxCell id="1GDeUliBSKqGdwp8zGbP-2" value="&lt;p style=&quot;margin:0px;margin-top:4px;text-align:center;&quot;&gt;&lt;b&gt;SubscriptionDetailActivityView&lt;/b&gt;&lt;/p&gt;&lt;hr size=&quot;1&quot;&gt;&lt;p style=&quot;margin:0px;margin-left:4px;&quot;&gt;+ field: Type&lt;/p&gt;&lt;hr size=&quot;1&quot;&gt;&lt;p style=&quot;margin:0px;margin-left:4px;&quot;&gt;+ method(): Type&lt;/p&gt;" style="verticalAlign=top;align=left;overflow=fill;fontSize=12;fontFamily=Helvetica;html=1;rounded=0;sketch=0;fontColor=#143642;strokeColor=#0F8B8D;fillColor=#FAE5C7;" vertex="1" parent="1">
          <mxGeometry x="480" y="120" width="400" height="240" as="geometry" />
        </mxCell>
      </root>
    </mxGraphModel>
  </diagram>
</mxfile>
